<svg xmlns="http://www.w3.org/2000/svg" viewBox="0 0 1631 277" width="1631" height="277" fill="currentColor"><path d="M514 272.612L608.42 21.3882H687.104L781.524 272.612H711.624L696.619 229.096H596.343L581.339 272.612H514ZM612.08 180.094H680.517L662.584 127.07C661.608 124.389 660.388 121.098 658.924 117.197C657.704 113.053 656.362 108.786 654.899 104.398C653.679 99.7661 652.459 95.1341 651.239 90.5021C650.019 85.8701 648.799 81.8476 647.579 78.4346H645.017C644.041 83.0666 642.578 88.308 640.626 94.1589C638.918 100.01 637.088 105.861 635.136 111.712C633.428 117.563 631.842 122.682 630.379 127.07L612.08 180.094Z" fill="black"></path><path d="M801.02 272.612V21.3882H1008.53V72.5837H866.529V119.757H990.593V169.855H866.529V221.416H1011.09V272.612H801.02Z" fill="black"></path><path d="M1160.03 277C1132.46 277 1108.8 272.246 1089.03 262.738C1069.52 252.987 1054.51 238.481 1044.02 219.222C1033.53 199.963 1028.28 175.828 1028.28 146.817C1028.28 117.806 1033.53 93.7933 1044.02 74.7778C1054.51 55.5185 1069.52 41.135 1089.03 31.6273C1108.8 21.8758 1132.46 17 1160.03 17C1187.6 17 1211.15 21.8758 1230.66 31.6273C1250.43 41.135 1265.55 55.5185 1276.04 74.7778C1286.54 93.7933 1291.78 117.806 1291.78 146.817C1291.78 175.828 1286.54 199.963 1276.04 219.222C1265.55 238.481 1250.43 252.987 1230.66 262.738C1211.15 272.246 1187.6 277 1160.03 277ZM1160.03 225.804C1170.52 225.804 1179.79 224.22 1187.85 221.051C1195.9 217.881 1202.61 213.249 1207.97 207.155C1213.59 201.06 1217.73 193.624 1220.42 184.848C1223.1 176.072 1224.44 166.198 1224.44 155.228V139.138C1224.44 127.924 1223.1 117.928 1220.42 109.152C1217.73 100.376 1213.59 92.94 1207.97 86.8453C1202.61 80.7506 1195.9 76.1186 1187.85 72.9494C1179.79 69.7801 1170.52 68.1955 1160.03 68.1955C1149.3 68.1955 1139.9 69.7801 1131.85 72.9494C1123.8 76.1186 1117.09 80.7506 1111.72 86.8453C1106.36 92.94 1102.33 100.376 1099.65 109.152C1096.96 117.928 1095.62 127.924 1095.62 139.138V155.228C1095.62 166.198 1096.96 176.072 1099.65 184.848C1102.33 193.624 1106.36 201.06 1111.72 207.155C1117.09 213.249 1123.8 217.881 1131.85 221.051C1139.9 224.22 1149.3 225.804 1160.03 225.804Z" fill="black"></path><path d="M1320.88 272.612V21.3882H1379.07L1470.56 138.041C1472.27 139.991 1474.46 142.795 1477.15 146.451C1480.07 150.108 1482.88 153.887 1485.56 157.788C1488.25 161.444 1490.2 164.37 1491.42 166.564L1493.25 166.198C1493.25 160.835 1493.25 155.715 1493.25 150.84C1493.25 145.72 1493.25 141.454 1493.25 138.041V21.3882H1554V272.612H1496.18L1399.19 149.743C1396.02 145.842 1392.97 141.82 1390.05 137.675C1387.36 133.531 1385.17 130.118 1383.46 127.436L1381.63 127.802C1381.63 131.702 1381.63 135.725 1381.63 139.869C1381.63 143.77 1381.63 147.061 1381.63 149.743V272.612H1320.88Z" fill="black"></path><path d="M276.62 0.449951H150.45L203.742 96.3752C213.716 114.328 199.211 135.45 176.909 135.45H99.2805C84.5723 135.45 71.0201 143.424 63.8771 156.281L0.450195 270.45H126.62C141.328 270.45 154.88 262.476 162.023 249.618L225.45 135.45L225.472 135.49L297.096 6.58287L261.321 200.017L288.877 249.618C296.02 262.476 309.572 270.45 324.281 270.45H450.45L312.023 21.2814C304.88 8.42409 291.328 0.449951 276.62 0.449951Z" fill="black"></path></svg>